<svg width="20" height="18" viewBox="0 0 20 18" fill="none" xmlns="http://www.w3.org/2000/svg">
<path d="M13.9792 2.99821L17.1111 6.13015C17.2431 6.2621 17.2431 6.47738 17.1111 6.60932L9.52778 14.1927L6.30556 14.5503C5.875 14.5989 5.51042 14.2343 5.55903 13.8038L5.91667 10.5815L13.5 2.99821C13.6319 2.86627 13.8472 2.86627 13.9792 2.99821ZM19.6042 2.20307L17.9097 0.508626C17.3819 -0.0191515 16.5243 -0.0191515 15.9931 0.508626L14.7639 1.73779C14.6319 1.86974 14.6319 2.08502 14.7639 2.21696L17.8958 5.3489C18.0278 5.48085 18.2431 5.48085 18.375 5.3489L19.6042 4.11974C20.1319 3.58849 20.1319 2.73085 19.6042 2.20307ZM13.3333 12.1302V15.6649H2.22222V4.55376H10.2014C10.3125 4.55376 10.4167 4.50863 10.4965 4.43224L11.8854 3.04335C12.1493 2.77946 11.9618 2.33154 11.5903 2.33154H1.66667C0.746528 2.33154 0 3.07807 0 3.99821V16.2204C0 17.1406 0.746528 17.8871 1.66667 17.8871H13.8889C14.809 17.8871 15.5556 17.1406 15.5556 16.2204V10.7413C15.5556 10.3697 15.1076 10.1857 14.8438 10.4461L13.4549 11.835C13.3785 11.9149 13.3333 12.019 13.3333 12.1302Z" fill="#6B7280"/>
</svg>
